HIERARCHY
ROOT Hips
{
	OFFSET 0.000000 0.000000 0.000000 
	CHANNELS 6 Xposition Yposition Zposition Yrotation Zrotation Xrotation 
	JOINT Lumbar
	{
		OFFSET 0.000000 0.000000 0.000000 
		CHANNELS 3 Zrotation Xrotation Yrotation
		JOINT Neck
		{
			OFFSET 0.000000 0.445665 0.000000 
			CHANNELS 3 Zrotation Xrotation Yrotation
			End Site
			{
				OFFSET 0.000000 0.227535 0.000000 
			}
		}
		JOINT RightShoulder
		{
			OFFSET 0.019635 0.377685 0.194865 
			CHANNELS 3 Zrotation Xrotation Yrotation
			JOINT RightElbow
			{
				OFFSET 0.000000 -0.243375 0.000000 
				CHANNELS 2 Zrotation Yrotation
				JOINT RightWrist
				{
					OFFSET 0.000000 -0.264825 0.000000 
					CHANNELS 2 Zrotation Xrotation
					End Site
					{
						OFFSET 0.006600 -0.176220 0.000990 
					}
				}
			}
		}
		JOINT LeftShoulder
		{
			OFFSET 0.019635 0.377685 -0.194865 
			CHANNELS 3 Zrotation Xrotation Yrotation
			JOINT LeftElbow
			{
				OFFSET 0.000000 -0.243375 0.000000 
				CHANNELS 2 Zrotation Yrotation
				JOINT LeftWrist
				{
					OFFSET 0.000000 -0.264825 0.000000 
					CHANNELS 2 Zrotation Xrotation
					End Site
					{
						OFFSET 0.006600 -0.176220 -0.000990 
					}
				}
			}
		}
	}
	JOINT RightHip
	{
		OFFSET 0.052140 -0.069960 0.075570 
		CHANNELS 3 Zrotation Xrotation Yrotation
		JOINT RightKnee
		{
			OFFSET 0.000000 -0.402270 0.000000 
			CHANNELS 1 Zrotation
			JOINT RightAnkle
			{
				OFFSET 0.000000 -0.404085 0.000000 
				CHANNELS 3 Zrotation Xrotation Yrotation
				End Site
				{
					OFFSET 0.204105 -0.089430 0.008415 
				}
			}
		}
	}
	JOINT LeftHip
	{
		OFFSET 0.052140 -0.069960 -0.075570 
		CHANNELS 3 Zrotation Xrotation Yrotation
		JOINT LeftKnee
		{
			OFFSET 0.000000 -0.402270 0.000000 
			CHANNELS 1 Zrotation
			JOINT LeftAnkle
			{
				OFFSET 0.000000 -0.404085 0.000000 
				CHANNELS 3 Zrotation Xrotation Yrotation
				End Site
				{
					OFFSET 0.204105 -0.089430 -0.008415 
				}
			}
		}
	}
}
MOTION
Frames: 24
Frame Time: 0.02
-0.04681 -0.00716 -0.09449 139.98974 -18.36652 -4.73264 41.18863 -5.54152 -9.76369 -15.18325 12.15745 -0.83079 -49.4285 -6.58163 -21.69951 40.22435 84.12158 -42.41524 -3.96477 -63.12007 49.34861 -32.7859 117.69941 -119.49578 -53.29456 7.36732 15.27084 0.34309 -21.18689 -48.50946 -22.07775 -0.83555 -1.59085 19.58682 -0.08667 12.82101 -25.59116 -7.6864 5.20155 3.46862
-0.04796 -0.00702 -0.09439 140.70195 -18.49793 -4.62494 41.24797 -5.51866 -9.28491 -15.33998 11.22793 -0.83079 -49.41798 -6.6277 -21.11922 40.45972 83.70715 -41.54497 -3.91442 -63.14953 49.0801 -32.21612 117.68241 -119.97065 -52.86767 7.45194 15.30282 0.4694 -21.17411 -48.34875 -22.09392 -0.82486 -1.58463 19.63998 -0.08609 12.9524 -25.6121 -7.59544 5.11976 3.41548
-0.04913 -0.00692 -0.09451 141.4278 -18.63343 -4.50789 41.31051 -5.50877 -8.8175 -15.51239 10.2537 -0.83079 -49.47917 -6.75506 -20.25633 40.7052 82.99538 -40.13301 -3.82938 -63.17208 48.79366 -31.64462 117.66265 -120.4491 -52.43713 7.54003 15.33989 0.63749 -21.06644 -48.17698 -22.10824 -0.81139 -1.57652 19.68659 -0.06461 13.14792 -25.64034 -7.49781 5.02885 3.35658
-0.05029 -0.00679 -0.09455 142.14857 -18.76578 -4.39476 41.37028 -5.49469 -8.34477 -15.67811 9.30448 -0.83079 -49.50993 -6.83487 -19.54287 40.94953 82.44274 -39.01679 -3.76322 -63.19561 48.51759 -31.07916 117.64561 -120.92026 -52.00324 7.62624 15.36912 0.78493 -21.01039 -48.00642 -22.12303 -0.79897 -1.56911 19.73494 -0.05464 13.2971 -25.66457 -7.40533 4.9434 3.30109
-0.05145 -0.0067 -0.0945 142.86417 -18.90321 -4.28229 41.436 -5.473 -7.87143 -15.84305 8.33044 -0.83079 -49.53257 -6.95683 -18.74372 41.18037 81.79256 -37.70785 -3.68451 -63.22042 48.23804 -30.49921 117.62229 -121.39811 -51.57129 7.71222 15.42064 0.93919 -20.92139 -47.84976 -22.14001 -0.7878 -1.5626 19.7878 -0.03724 13.51523 -25.6915 -7.30432 4.85251 3.24231
-0.0526 -0.00654 -0.09468 143.59389 -19.03124 -4.16649 41.48961 -5.47041 -7.40286 -16.01241 7.40027 -0.83079 -49.58795 -7.01007 -18.05983 41.44113 81.27747 -36.66762 -3.62385 -63.24426 47.95727 -29.94543 117.6111 -121.87231 -51.14289 7.80059 15.42752 1.08886 -20.87624 -47.66424 -22.15112 -0.77317 -1.55361 19.83011 -0.02977 13.60749 -25.71467 -7.21925 4.77068 3.18897
-0.05373 -0.00616 -0.09542 144.35985 -19.13143 -4.04407 41.5127 -5.5174 -6.94129 -16.19655 6.59198 -0.83079 -49.72652 -6.87027 -17.69838 41.78382 81.15612 -36.4721 -3.61668 -63.26271 47.70224 -29.47297 117.63815 -122.29949 -50.71158 7.88841 15.3086 1.21994 -20.98915 -47.38065 -22.15445 -0.75044 -1.53901 19.84344 -0.05688 13.32189 -25.72524 -7.18097 4.71691 3.1525
-0.05483 -0.00571 -0.09636 145.13955 -19.22212 -3.9188 41.52254 -5.58319 -6.48514 -16.38331 5.83208 -0.83079 -49.89359 -6.65697 -17.47156 42.1555 81.18771 -36.56735 -3.62946 -63.28212 47.44208 -29.0248 117.67681 -122.73068 -50.28881 7.9797 15.14561 1.34402 -21.14669 -47.07376 -22.15064 -0.72414 -1.52182 19.84682 -0.09414 12.90987 -25.73191 -7.15874 4.67245 3.12166
-0.05593 -0.00532 -0.0972 145.91258 -19.3179 -3.79458 41.53636 -5.64049 -6.02856 -16.56462 5.05701 -0.83079 -50.0409 -6.46578 -17.22694 42.51307 81.18448 -36.54779 -3.63636 -63.30526 47.16672 -28.55825 117.70757 -123.18687 -49.87396 8.07384 15.00292 1.46886 -21.27442 -46.78954 -22.14468 -0.69893 -1.50524 19.85564 -0.12537 12.56638 -25.74063 -7.12836 4.62317 3.08796
-0.05707 -0.00483 -0.09809 146.68766 -19.41097 -3.67053 41.55998 -5.69816 -5.56279 -16.76454 4.25063 -0.83079 -50.21967 -6.32101 -16.79758 42.8763 81.03195 -36.44135 -3.62937 -63.31117 46.96224 -28.12077 117.7493 -123.53348 -49.40993 8.14992 14.85653 1.6063 -21.43887 -46.44808 -22.16074 -0.67585 -1.49093 19.85994 -0.16214 12.18075 -25.74826 -7.10129 4.57596 3.05523
-0.05811 -0.00452 -0.09893 147.4618 -19.50687 -3.54624 41.55866 -5.75915 -5.11857 -16.92603 3.52268 -0.83079 -50.33849 -6.06608 -16.77845 43.2328 81.22131 -36.58583 -3.65557 -63.35239 46.61234 -27.63101 117.77097 -124.1045 -49.04909 8.26373 14.71074 1.71412 -21.53896 -46.22782 -22.13016 -0.64755 -1.47138 19.87186 -0.1897 11.84898 -25.75734 -7.0713 4.52689 3.02201
-0.05898 -0.00471 -0.09963 148.22778 -19.61747 -3.41645 41.50329 -5.82655 -4.72184 -16.98139 2.99045 -0.83079 -50.28653 -5.48132 -17.94886 43.57849 82.39903 -37.40662 -3.77668 -63.49902 45.83517 -26.96961 117.73429 -125.33446 -48.98368 8.48624 14.54815 1.75164 -21.4486 -46.2837 -21.96478 -0.60553 -1.43746 19.90348 -0.19213 11.7237 -25.76934 -7.02863 4.46942 2.98494
-0.05971 -0.00508 -0.10026 148.99266 -19.73044 -3.2877 41.42118 -5.89617 -4.34875 -16.9978 2.53749 -0.83079 -50.17258 -4.79573 -19.51284 43.91381 83.90255 -38.4627 -3.92922 -63.67959 44.91737 -26.25915 117.67697 -126.78161 -49.01946 8.74535 14.3933 1.75747 -21.29296 -46.47343 -21.75419 -0.5585 -1.3985 19.94395 -0.18436 11.65225 -25.78311 -6.98263 4.40997 2.94739
-0.06044 -0.00537 -0.1009 149.75942 -19.8392 -3.16203 41.34359 -5.9636 -3.97154 -17.03154 2.05427 -0.83079 -50.08548 -4.18482 -20.83828 44.24376 85.2038 -39.37751 -4.06211 -63.83947 44.0812 -25.58458 117.62925 -128.10419 -49.00083 8.98443 14.25382 1.7713 -21.16864 -46.6453 -21.56942 -0.51381 -1.36213 19.98273 -0.17976 11.53753 -25.79755 -6.93858 4.35218 2.91084
-0.06147 -0.00567 -0.10166 150.52089 -19.96056 -3.02086 41.29738 -6.03696 -3.56573 -17.06692 1.54804 -0.83079 -50.00492 -3.45059 -22.41721 44.61634 86.73582 -40.44574 -4.21801 -64.02202 43.16835 -24.85171 117.58127 -129.5402 -49.01837 9.23887 14.03232 1.81231 -21.038 -46.63896 -21.36209 -0.46846 -1.32421 20.01088 -0.18239 11.49548 -25.80624 -6.89314 4.29162 2.87128
-0.06182 -0.00599 -0.10214 151.29286 -20.05676 -2.91277 41.18011 -6.09789 -3.22607 -17.08962 1.10837 -0.83079 -49.89573 -2.94894 -23.56364 44.89851 87.86663 -41.24827 -4.3336 -64.16491 42.38401 -24.23047 117.52844 -130.78634 -48.98408 9.46884 13.98501 1.78882 -20.90552 -47.03086 -21.19114 -0.4237 -1.2886 20.06393 -0.16651 11.31944 -25.8266 -6.84972 4.23608 2.83766
-0.06036 -0.00634 -0.10187 152.09492 -20.07928 -2.8911 40.86894 -6.12707 -3.05415 -17.08681 0.82926 -0.83079 -49.72181 -3.12619 -23.38561 44.92196 87.77319 -41.24329 -4.32655 -64.19431 41.97022 -23.91079 117.47016 -131.50043 -48.78602 9.63208 14.40867 1.59854 -20.77397 -48.53113 -21.13147 -0.37848 -1.25861 20.17907 -0.11024 10.73535 -25.88554 -6.81174 4.19636 2.82183
-0.0582 -0.00671 -0.10132 152.90744 -20.07696 -2.90335 40.4879 -6.14306 -2.94946 -17.07262 0.61494 -0.83079 -49.52137 -3.5395 -22.76355 44.85631 87.26977 -40.96377 -4.27831 -64.18196 41.69378 -23.70832 117.40705 -132.00844 -48.53191 9.76778 15.00874 1.34375 -20.64401 -50.4184 -21.11009 -0.33462 -1.23149 20.3197 -0.03451 10.0199 -25.95497 -6.77597 4.16147 2.81174
-0.05633 -0.00705 -0.10092 153.71444 -20.08868 -2.9034 40.14183 -6.16287 -2.82018 -17.06355 0.37317 -0.83079 -49.33325 -3.83678 -22.36745 44.83952 86.9787 -40.82004 -4.25133 -64.1857 41.36723 -23.46458 117.34424 -132.57972 -48.30016 9.90941 15.53408 1.11621 -20.52025 -52.10337 -21.07128 -0.29238 -1.20444 20.45187 0.03826 9.38145 -26.01506 -6.73977 4.12332 2.79814
-0.05457 -0.00747 -0.10044 154.5243 -20.0896 -2.89077 39.78174 -6.19167 -2.66736 -17.05309 0.12551 -0.83079 -49.14122 -4.1659 -21.88669 44.78906 86.59354 -40.64088 -4.21516 -64.20223 40.98529 -23.16929 117.28892 -133.28272 -48.08336 10.07934 16.03821 0.89644 -20.36694 -53.91085 -21.0308 -0.24071 -1.17155 20.57179 0.0882 8.67144 -26.09421 -6.70117 4.08951 2.78828
-0.05242 -0.00774 -0.10006 155.33115 -20.10616 -2.91151 39.43397 -6.19895 -2.57821 -17.04367 -0.09519 -0.83079 -48.95266 -4.48803 -21.46723 44.78521 86.29725 -40.4638 -4.18742 -64.18248 40.75131 -23.00881 117.21688 -133.66478 -47.82298 10.18428 16.62639 0.6454 -20.27398 -55.54543 -21.00375 -0.2088 -1.15142 20.72234 0.18811 8.07897 -26.1365 -6.66799 4.04796 2.77208
-0.04937 -0.00747 -0.10009 156.12317 -20.17954 -3.02502 39.14296 -6.1467 -2.65684 -17.03749 -0.26087 -0.83079 -48.77326 -4.71564 -21.36404 44.95349 86.39375 -40.38995 -4.19784 -64.06647 40.90853 -23.20039 117.10222 -133.16683 -47.43683 10.10842 17.42036 0.32562 -20.36756 -56.67936 -21.00206 -0.23359 -1.16727 20.95802 0.43899 7.8404 -26.0715 -6.65064 3.98259 2.73612
-0.04596 -0.00706 -0.10024 156.91242 -20.26779 -3.16903 38.86583 -6.0739 -2.79536 -17.03356 -0.40151 -0.83079 -48.59979 -4.93086 -21.3304 45.16802 86.58483 -40.32271 -4.21752 -63.91648 41.20716 -23.52177 116.97074 -132.3612 -47.01196 9.96969 18.28976 -0.02345 -20.5178 -57.61502 -21.01297 -0.27786 -1.19566 21.22201 0.73612 7.72513 -25.96968 -6.63845 3.90944 2.6937
-0.04272 -0.0068 -0.10033 157.70572 -20.34464 -3.29349 38.57883 -6.01262 -2.90106 -17.03021 -0.55153 -0.83079 -48.42856 -5.16498 -21.23559 45.34693 86.69819 -40.22896 -4.22909 -63.78589 41.43165 -23.77902 116.84527 -131.72301 -46.61671 9.86456 19.1134 -0.36033 -20.62987 -58.58995 -21.02019 -0.31155 -1.21733 21.469 1.00042 7.55472 -25.88649 -6.62296 3.84076 2.6548
